# xmcd
#
# Track frame offsets: 
#        183
#        15183
#        30805
#        47750
#        64813
#        79730
#        90333
#        104035
#        116920
#        133033
#
# Disc length: 1993 seconds
#
# Revision: 4
# Processed by: cddbd v1.4PL0 Copyright (c) Steve Scherf et al.
# Submitted via: ExactAudioCopy v0.90b3
#
DISCID=7507c70a
DTITLE=Emmylou Harris - Profile II (Best Of Emmylou Harris)
DYEAR=1900
DGENRE=Country
TTITLE0=Blue Kentucky Girl
TTITLE1=Wayfaring Stranger
TTITLE2=Beneath Still Waters
TTITLE3=Born To Run
TTITLE4=Someone Like You
TTITLE5=Mister Sandman
TTITLE6=Pledgin My Love
TTITLE7=I'm Movin' On
TTITLE8=(Lost His Love) On Our Last Date
TTITLE9=Save The Last Dance For Me
EXTD=
EXTT0=Blue Kentucky Girl
EXTT1=
EXTT2=
EXTT3=
EXTT4=
EXTT5=
EXTT6=
EXTT7=
EXTT8=
EXTT9=
PLAYORDER=
